<?xml version="1.0" encoding="UTF-8"?>
<svg width="700pt" height="700pt" version="1.1" viewBox="0 0 700 700" xmlns="http://www.w3.org/2000/svg">
 <g>
  <path d="m385 87.5c0-9.6641-7.8359-17.5-17.5-17.5h-35v-17.5c0-9.6641-7.8359-17.5-17.5-17.5h-70c-9.6641 0-17.5 7.8359-17.5 17.5v17.5h-35c-9.6641 0-17.5 7.8359-17.5 17.5v52.5h210z"/>
  <path d="m357.64 257.27c-2.4102-4.1836-7.75-5.6172-11.926-3.2031l-14.121 8.1719c-5.1875-3.832-10.688-7.2266-16.664-9.8477l-0.003906-16.137c0-4.832-3.9102-8.75-8.7305-8.75h-52.383c-4.8203 0-8.7305 3.918-8.7305 8.75v16.137c-5.9766 2.6211-11.477 6.0156-16.664 9.8477l-14.121-8.1719c-4.1758-2.418-9.5156-0.98438-11.926 3.2031l-26.191 45.465c-2.4102 4.1836-0.98047 9.5391 3.1953 11.953l14.285 8.2656c-0.35156 3.1797-0.96484 6.2812-0.96484 9.5508s0.61328 6.3711 0.96094 9.5469l-14.285 8.2656c-4.1758 2.418-5.6094 7.7656-3.1953 11.953l26.191 45.465c2.4102 4.1836 7.75 5.6211 11.926 3.2031l14.121-8.1719c5.1875 3.832 10.688 7.2266 16.664 9.8477l0.003906 16.141c0 4.832 3.9102 8.75 8.7305 8.75h52.383c4.8203 0 8.7305-3.918 8.7305-8.75v-16.137c5.9766-2.6211 11.477-6.0156 16.664-9.8477l14.121 8.1719c4.1758 2.418 9.5156 0.98047 11.926-3.2031l26.191-45.465c2.4102-4.1836 0.98047-9.5352-3.1953-11.953l-14.285-8.2656c0.35156-3.1797 0.96484-6.2812 0.96484-9.5508s-0.61328-6.3711-0.96094-9.5469l14.285-8.2656c4.1758-2.418 5.6094-7.7695 3.1953-11.953zm-77.637 127.73c-28.996 0-52.5-23.504-52.5-52.5s23.504-52.5 52.5-52.5 52.5 23.504 52.5 52.5-23.504 52.5-52.5 52.5z"/>
  <path d="m420 402.5v-140c0-9.6641 7.8359-17.5 17.5-17.5h17.5v-140c0-9.6641-7.8359-17.5-17.5-17.5h-35v52.5c0 9.6641-7.8359 17.5-17.5 17.5h-210c-9.6641 0-17.5-7.8359-17.5-17.5v-52.5h-35c-9.6641 0-17.5 7.8359-17.5 17.5v402.5c0 9.6641 7.8359 17.5 17.5 17.5h315c9.6641 0 17.5-7.8359 17.5-17.5v-87.5h-17.5c-9.6641 0-17.5-7.8359-17.5-17.5zm-30.625-67.352c12.562 7.2812 16.852 23.379 9.5859 35.891l-26.164 45.426c-4.6641 8.1016-13.371 13.141-22.738 13.141-4.582 0-9.1094-1.2148-13.09-3.5039l-4.5469-2.6328v5.2812c0 14.477-11.766 26.25-26.234 26.25h-52.379c-14.465 0-26.234-11.773-26.234-26.25v-5.2812l-4.5078 2.6172c-4.0156 2.3086-8.5469 3.5195-13.125 3.5195-9.3672 0-18.082-5.043-22.746-13.141l-26.191-45.461c-7.1953-12.512-2.9062-28.574 9.5703-35.82l4.6211-2.6836-4.5898-2.6484c-12.512-7.2812-16.801-23.344-9.6055-35.855l26.191-45.461c4.6641-8.1016 13.383-13.141 22.746-13.141 4.582 0 9.1094 1.2148 13.09 3.5039l4.5469 2.6328 0.003906-5.2812c0-14.477 11.766-26.25 26.234-26.25h52.379c14.465 0 26.234 11.773 26.234 26.25v5.2812l4.5117-2.6133c4.0156-2.3086 8.5469-3.5195 13.125-3.5195 9.3672 0 18.074 5.043 22.754 13.141l26.164 45.461c7.2461 12.477 2.957 28.574-9.5859 35.836l-4.5977 2.6484c0.015625 0.015625 4.5781 2.6641 4.5781 2.6641z"/>
  <path d="m560 297.5c-12.898 0-24.059 7.0898-30.129 17.5h-92.371v35h92.371c6.0703 10.41 17.23 17.5 30.129 17.5 19.305 0 35-15.707 35-35s-15.695-35-35-35z"/>
  <path d="m437.5 297.5h35c4.6406 0 9.0938-1.8477 12.375-5.1289l29.871-29.871h15.125c6.0703 10.41 17.23 17.5 30.129 17.5 19.305 0 35-15.707 35-35s-15.695-35-35-35c-12.898 0-24.059 7.0898-30.129 17.5h-22.371c-4.6406 0-9.0938 1.8477-12.375 5.1289l-29.871 29.871h-27.754z"/>
  <path d="m560 385c-12.898 0-24.059 7.0898-30.129 17.5h-15.125l-29.875-29.875c-3.2773-3.2773-7.7305-5.125-12.371-5.125h-35v35h27.754l29.875 29.875c3.2812 3.2812 7.7305 5.125 12.371 5.125h22.371c6.0703 10.41 17.23 17.5 30.129 17.5 19.305 0 35-15.707 35-35s-15.695-35-35-35z"/>
 </g>
</svg>
